<svg version="1.1" id="Layer_1" xmlns="http://www.w3.org/2000/svg" x="0" y="0" viewBox="0 0 512 512" style="enable-background:new 0 0 512 512" xml:space="preserve"><style>.st1{fill:#dfdfdf}.st2{fill:#4a555f}</style><path d="M284.571 84.136c-82.448 0-149.525 67.076-149.525 149.525 0 32.336 10.045 62.867 29.108 88.653h36.304l93.775 48.929a35.71 35.71 0 0 1 12.129 10.351c33.99-4.96 65.233-21.518 88.625-47.119 25.219-27.6 39.107-63.403 39.107-100.814.002-82.448-67.075-149.525-149.523-149.525z" style="fill:#71cce0"/><path class="st2" d="M509.467 376.424c-6.353-14.1-22.495-20.436-36.738-14.426l-128.065 54.011c-19.589 8.261-36.691 11.844-52.801 10.718.209-.125.418-.252.625-.383 8.087-5.105 12.916-13.862 12.916-23.426a27.615 27.615 0 0 0-14.888-24.559l-92.026-48.014h-83.931v7.018h82.211l90.5 47.218a20.62 20.62 0 0 1 11.117 18.337c0 7.141-3.605 13.679-9.644 17.491-5.155 3.255-11.344 4.052-17.06 2.301a91.86 91.86 0 0 1-1.185-.402 21.041 21.041 0 0 1-1.695-.719l-78.099-37.148-3.014 6.338 60.926 28.979c6.041 3.555 11.97 6.332 17.774 8.446a27.938 27.938 0 0 0 5.364 1.78c29.374 8.796 55.284 1.075 75.639-7.508l128.065-54.011c10.71-4.518 22.835.247 27.611 10.843 4.748 10.54.326 22.759-10.069 27.817l-149.233 72.606a112.212 112.212 0 0 1-93.729 2.097l-124.993-54.039H114.56v7.018h9.032l123.662 53.463a119.282 119.282 0 0 0 47.37 9.813 119.308 119.308 0 0 0 52.215-12.041l149.233-72.606c13.828-6.73 19.713-22.988 13.395-37.012z"/><path class="st1" d="M495.742 382.608c-2.21-4.903-6.953-7.796-11.979-7.796-1.725 0-3.482.341-5.182 1.058l-128.065 54.012c-21.746 9.171-39.851 12.595-54.982 12.595-23.774 0-40.205-8.451-51.872-16.333l-59.404-28.169 9.936-20.846 78.068 37.206a12.669 12.669 0 0 0 5.471 1.262c2.325 0 4.63-.664 6.718-1.983 3.748-2.365 5.897-6.263 5.897-10.694 0-4.728-2.605-9.024-6.797-11.211L194.798 345.4h-68.282v75.062l-.622-.031.622.27 126.71 53.75a104.256 104.256 0 0 0 41.395 8.576c15.626 0 31.227-3.516 45.628-10.523l149.232-72.606a13.14 13.14 0 0 0 6.261-17.29z"/><path class="st2" d="M0 288.977v187.944h118.068V288.977H0zm111.05 180.925H7.018V295.995H111.05v173.907z"/><path style="fill:#ffd452" d="M15.055 304.032h87.957v157.833H15.055z"/><path class="st2" d="M42.506 314.883c-11.048 0-20.037 8.989-20.037 20.037 0 11.049 8.989 20.037 20.037 20.037s20.037-8.989 20.037-20.037c0-11.048-8.989-20.037-20.037-20.037zm0 33.056c-7.178 0-13.018-5.84-13.018-13.019s5.84-13.019 13.018-13.019 13.018 5.84 13.018 13.019-5.84 13.019-13.018 13.019zM290.516 378.368l-92.029-48.017h-40.025v7.018h38.305l90.498 47.218a20.657 20.657 0 0 1 9.632 10.678l6.522-2.591a27.669 27.669 0 0 0-12.903-14.306z"/><path class="st2" d="m290.516 378.368-1.986-1.039-3.253 6.219 1.989 1.04a20.657 20.657 0 0 1 9.632 10.678l6.522-2.591a27.673 27.673 0 0 0-12.904-14.307z"/><path class="st2" d="m290.516 378.368-1.986-1.039-3.253 6.219 1.989 1.04a20.657 20.657 0 0 1 9.632 10.678l6.522-2.591a27.673 27.673 0 0 0-12.904-14.307zM246.123 213.29v-3.326c0-12.848-10.453-23.301-23.3-23.301H211.22c-12.848 0-23.301 10.452-23.301 23.301v54.509c0 12.848 10.453 23.301 23.301 23.301h11.603c12.847 0 23.3-10.452 23.3-23.301h-7.018c0 8.978-7.304 16.283-16.282 16.283H211.22c-8.978 0-16.283-7.304-16.283-16.283v-54.509c0-8.978 7.305-16.282 16.283-16.282h11.603c8.978 0 16.282 7.304 16.282 16.282v3.326h7.018zM313.505 214.384v-.489c0-15.238-12.397-27.635-27.635-27.635-15.238 0-27.634 12.397-27.634 27.635v1.799c0 14.173 11.531 25.704 25.705 25.704h3.86c10.303 0 18.686 8.383 18.686 18.687 0 11.367-9.249 20.616-20.617 20.616s-20.616-9.248-20.616-20.616h-7.018c0 15.237 12.396 27.634 27.634 27.634s27.635-12.397 27.635-27.635c0-14.173-11.531-25.705-25.705-25.705h-3.86c-10.303 0-18.686-8.383-18.686-18.686v-1.799c0-11.368 9.248-20.616 20.616-20.616s20.617 9.248 20.617 20.616v.489h7.018zM362.292 233.48h-28.605v52.97h7.018v-45.952h16.938l20.027 47.266 6.463-2.738z"/><path class="st2" d="M358.621 184.51h-24.934v55.988h24.934c15.436 0 27.994-12.558 27.994-27.994s-12.559-27.994-27.994-27.994zm0 48.97h-17.915v-41.952h17.915c11.565 0 20.976 9.41 20.976 20.976s-9.411 20.976-20.976 20.976z"/><path class="st2" d="M284.57 69.081c-90.749 0-164.579 73.83-164.579 164.58 0 37.617 12.354 73.022 35.725 102.384l1.054 1.324h39.997l88.509 46.178 1.989 1.041a20.657 20.657 0 0 1 9.632 10.678l.973 2.449 2.623-.251c40.524-3.886 78.03-22.649 105.61-52.833 27.76-30.381 43.048-69.791 43.048-110.969 0-90.751-73.83-164.581-164.581-164.581zm116.352 270.815c-25.841 28.281-60.782 46.089-98.62 50.323a27.672 27.672 0 0 0-11.786-11.852l-92.029-48.017h-38.322c-21.699-27.846-33.156-61.24-33.156-96.69 0-86.88 70.682-157.562 157.561-157.562 86.88 0 157.562 70.682 157.562 157.562.001 39.423-14.635 77.152-41.21 106.236zM456.469 95.34l-5.456 4.416a212.77 212.77 0 0 1 4.256 5.434l5.595-4.236a218.311 218.311 0 0 0-4.395-5.614zm30.871 70.614 6.657-2.222a215.83 215.83 0 0 0-2.369-6.726l-6.58 2.442a204.405 204.405 0 0 1 2.292 6.506zm-22.261-59.247-5.73 4.054a211.944 211.944 0 0 1 3.895 5.698l5.858-3.864a218.156 218.156 0 0 0-4.023-5.888zm7.852 11.899-5.979 3.675a213.466 213.466 0 0 1 3.517 5.939l6.095-3.479a221.615 221.615 0 0 0-3.633-6.135zm23.597 87.633 6.963-.88a212.66 212.66 0 0 0-1.012-7.055l-6.929 1.111c.362 2.263.689 4.538.978 6.824zm-5.247-27.063 6.787-1.783a215.278 215.278 0 0 0-1.922-6.863l-6.726 2.003a212.09 212.09 0 0 1 1.861 6.643zm6.543 40.795 7.004-.434a221.275 221.275 0 0 0-.553-7.1l-6.987.658c.214 2.282.393 4.574.536 6.876zm-3.478-27.348 6.89-1.334a211.844 211.844 0 0 0-1.47-6.974l-6.842 1.56c.509 2.236.983 4.486 1.422 6.748zm-14.349-61.631-6.207 3.277a212.553 212.553 0 0 1 3.124 6.155l6.308-3.075a222.724 222.724 0 0 0-3.225-6.357zm16.404 130.325 6.959.917c.31-2.351.583-4.714.817-7.088l-6.984-.69a214.742 214.742 0 0 1-.792 6.861zm-7.359-110.951c-.9-2.203-1.835-4.389-2.804-6.556l-6.406 2.867c.938 2.096 1.843 4.21 2.713 6.343l6.497-2.654zm16.112 76.286-7.016.207c.063 2.133.095 4.274.096 6.421v.494h7.018v-.495a227.926 227.926 0 0 0-.098-6.627zm-11.005 48.289 6.883 1.367c.463-2.327.888-4.666 1.277-7.018l-6.924-1.145a211.196 211.196 0 0 1-1.236 6.796zm3.613-27.369 7.002.464c.156-2.365.276-4.739.358-7.124l-7.014-.239c-.078 2.31-.194 4.609-.346 6.899zm-6.747 40.817 6.781 1.813c.612-2.292 1.19-4.598 1.732-6.919l-6.835-1.594a212.186 212.186 0 0 1-1.678 6.7zm-8.873 26.131 6.484 2.687a220.216 220.216 0 0 0 2.623-6.634l-6.568-2.473a216.14 216.14 0 0 1-2.539 6.42zm4.865-12.919 6.648 2.253a227.493 227.493 0 0 0 2.181-6.79l-6.717-2.038a211.482 211.482 0 0 1-2.112 6.575zM219.869 24.002l2.109 6.694c2.19-.69 4.394-1.346 6.614-1.966l-1.889-6.759c-2.294.64-4.572 1.318-6.834 2.031zm13.731-3.837 1.665 6.817c2.23-.545 4.473-1.054 6.728-1.528l-1.444-6.869a219.38 219.38 0 0 0-6.949 1.58zm-27.183 8.565 2.543 6.542a211.954 211.954 0 0 1 6.471-2.395l-2.328-6.621c-2.246.79-4.474 1.614-6.686 2.474zm55.241-13.51.765 6.976c2.28-.25 4.569-.464 6.868-.642l-.541-6.998c-2.375.185-4.739.406-7.092.664zm-14.109 2.015 1.218 6.912c2.258-.398 4.529-.76 6.812-1.086l-.992-6.947c-2.358.335-4.704.71-7.038 1.121zm-54.246 17.093 2.965 6.36c2.082-.97 4.183-1.908 6.301-2.813l-2.755-6.454a218.46 218.46 0 0 0-6.511 2.907zm82.56-20.205.315 7.011c2.29-.103 4.589-.169 6.896-.2l-.091-7.017c-2.383.031-4.757.099-7.12.206zM168.309 48.026l3.765 5.923a218.013 218.013 0 0 1 5.886-3.611l-3.575-6.039a222.315 222.315 0 0 0-6.076 3.727zm-11.78 8.039 4.142 5.665a214.252 214.252 0 0 1 5.638-3.984l-3.957-5.796a221.243 221.243 0 0 0-5.823 4.115zm24.054-15.295 3.372 6.155a212.385 212.385 0 0 1 6.105-3.218l-3.171-6.261a217.522 217.522 0 0 0-6.306 3.324zm189.907-2.326c2.113.919 4.208 1.872 6.285 2.857l3.009-6.341a217.413 217.413 0 0 0-6.495-2.952l-2.799 6.436zm12.475 5.919a209.671 209.671 0 0 1 6.085 3.261l3.418-6.131a222.697 222.697 0 0 0-6.288-3.37l-3.215 6.24zm-25.313-11.01c2.169.78 4.324 1.593 6.458 2.44l2.588-6.523a218.992 218.992 0 0 0-6.675-2.521l-2.371 6.604zm37.378 17.728a212.27 212.27 0 0 1 5.859 3.65l3.808-5.895a216.259 216.259 0 0 0-6.055-3.771l-3.612 6.016zm29.583 12.27-.23-.205c-.763-.621-1.53-1.239-2.302-1.85l-4.361 5.498c.707.561 1.411 1.127 2.112 1.697l2.836 2.757 4.891-5.032-2.946-2.865zM289.992 20.956c2.312.044 4.615.125 6.909.242l.359-7.009a221.764 221.764 0 0 0-7.135-.25l-.133 7.017zM406.631 58.57a206.976 206.976 0 0 1 5.61 4.021l4.183-5.636a218.72 218.72 0 0 0-5.797-4.156l-3.996 5.771zm-62.122-29.456a211.09 211.09 0 0 1 6.607 2.012l2.154-6.679a217.05 217.05 0 0 0-6.826-2.079l-1.935 6.746zm-26.986-5.854c2.285.341 4.557.719 6.815 1.132l1.263-6.904a219.808 219.808 0 0 0-7.041-1.17l-1.037 6.942zm-13.725-1.597c2.302.192 4.594.421 6.875.687l.811-6.971c-2.357-.274-4.724-.51-7.103-.709l-.583 6.993zm27.316 4.082c2.255.49 4.496 1.015 6.725 1.575l1.711-6.807a219.142 219.142 0 0 0-6.948-1.627l-1.488 6.859z"/><path class="st1" d="M495.742 382.608c-2.21-4.903-6.953-7.796-11.979-7.796-1.725 0-3.482.341-5.182 1.058l-128.065 54.012c-21.746 9.171-39.851 12.595-54.982 12.595-23.774 0-40.205-8.451-51.872-16.333l-59.404-28.169 9.936-20.846 78.068 37.206a12.669 12.669 0 0 0 5.471 1.262c2.325 0 4.63-.664 6.718-1.983 3.748-2.365 5.897-6.263 5.897-10.694 0-4.728-2.605-9.024-6.797-11.211L194.798 345.4h-68.282v75.062l-.622-.031.622.27 126.71 53.75a104.256 104.256 0 0 0 41.395 8.576c15.626 0 31.227-3.516 45.628-10.523l149.232-72.606a13.14 13.14 0 0 0 6.261-17.29z"/><path class="st2" d="m290.516 378.368-92.029-48.017h-40.025v7.018h38.305l90.498 47.218a20.657 20.657 0 0 1 9.632 10.678l6.522-2.591a27.669 27.669 0 0 0-12.903-14.306z"/><path class="st2" d="m290.516 378.368-1.986-1.039-3.253 6.219 1.989 1.04a20.657 20.657 0 0 1 9.632 10.678l6.522-2.591a27.673 27.673 0 0 0-12.904-14.307z"/><path class="st2" d="m290.516 378.368-1.986-1.039-3.253 6.219 1.989 1.04a20.657 20.657 0 0 1 9.632 10.678l6.522-2.591a27.673 27.673 0 0 0-12.904-14.307zM69.097 199.351l6.936 1.076a211.55 211.55 0 0 1 1.171-6.808l-6.897-1.301a218.56 218.56 0 0 0-1.21 7.033zm-.564 63.989c.323 2.362.684 4.712 1.083 7.05l6.918-1.179a209.502 209.502 0 0 1-1.046-6.822l-6.955.951zm5.522-14.684-7 .503c.17 2.378.378 4.746.623 7.102l6.982-.725a213.27 213.27 0 0 1-.605-6.88zm-.2-27.622-7.007-.395a224.206 224.206 0 0 0-.29 7.13l7.016.174c.057-2.313.152-4.616.281-6.909zm1.228-13.765-6.966-.848c-.287 2.354-.538 4.72-.75 7.097l6.991.625c.205-2.302.447-4.593.725-6.874zm-1.57 27.589-7.018.052c.017 2.385.073 4.761.166 7.128l7.014-.275a216.652 216.652 0 0 1-.162-6.905zm-1.766-49.532 6.849 1.527a214.585 214.585 0 0 1 1.614-6.717l-6.797-1.75c-.591 2.3-1.147 4.613-1.666 6.94zm19.541-53.463 6.221 3.249a217.434 217.434 0 0 1 3.295-6.068l-6.111-3.45a218.728 218.728 0 0 0-3.405 6.269zm7.013-12.423 5.997 3.646a213.312 213.312 0 0 1 3.683-5.842l-5.876-3.837a224.025 224.025 0 0 0-3.804 6.033zm11.993-17.713a218.084 218.084 0 0 0-4.189 5.774l5.748 4.028a215.937 215.937 0 0 1 4.054-5.589l-5.613-4.213zm-25.193 42.99 6.42 2.836a208.166 208.166 0 0 1 2.893-6.269l-6.324-3.045a219.853 219.853 0 0 0-2.989 6.478zm-9.793 26.789 6.735 1.973a216.181 216.181 0 0 1 2.049-6.595l-6.666-2.192a211.735 211.735 0 0 0-2.118 6.814zm4.458-13.557 6.591 2.411a215.527 215.527 0 0 1 2.478-6.448l-6.511-2.622a222.48 222.48 0 0 0-2.558 6.659z"/><path class="st2" d="m90.292 92.523.992 6.947 28.715-4.098-1.462 30.236 7.009.339 1.874-38.723zM435.99 47.155l-6.851 1.519 6.279 28.319-30.259.851.197 7.016 38.753-1.091zM506.429 311.863l-25.292 14.202-9.566-28.72-6.659 2.218 12.252 36.781 32.701-18.362z"/></svg>