<svg width="348" height="326" viewBox="0 0 348 326" fill="none" xmlns="http://www.w3.org/2000/svg">
<path d="M198.531 99.9568L105.715 147.822C104.796 148.296 103.765 148.533 102.713 148.511C101.66 148.49 100.62 148.21 99.683 147.697C98.7462 147.185 97.9423 146.455 97.3426 145.572C96.743 144.69 96.366 143.682 96.2453 142.639L92.811 112.97L74.1402 113.972C73.5109 114.004 72.8788 113.851 72.3234 113.53C71.7681 113.209 71.3146 112.735 71.0201 112.168C70.7256 111.602 70.6034 110.967 70.6688 110.345C70.7343 109.723 70.9845 109.142 71.3879 108.674L89.8396 87.291L84.5667 41.7539C84.436 40.6239 84.6103 39.4914 85.0716 38.4736C85.5329 37.4559 86.2644 36.5899 87.1904 35.9653C88.1163 35.3407 89.2031 34.9802 90.3382 34.9211C91.4733 34.862 92.6155 35.1065 93.6464 35.6292L198.14 88.6488C199.202 89.1887 200.105 90.0032 200.75 91.0032C201.395 92.0031 201.757 93.1498 201.797 94.3175C201.837 95.4852 201.553 96.6287 200.976 97.6227C200.399 98.6167 199.551 99.4228 198.526 99.9525L198.531 99.9568ZM181.903 95.0195L98.7293 82.2819L100.489 97.5044L181.903 95.0195Z" fill="#DF8C64"/>
<path d="M238.668 91.4941C346.385 91.3558 352.199 231.715 230.783 231.871" stroke="white" stroke-width="18" stroke-linecap="round" stroke-dasharray="30 40"/>
<path d="M185.715 234.012C122.5 234.012 121 292.5 161.729 316.518" stroke="white" stroke-width="18" stroke-linecap="round" stroke-dasharray="30 40"/>
</svg>
